<svg id="Layer_1" xmlns="http://www.w3.org/2000/svg" xmlns:xlink="http://www.w3.org/1999/xlink" viewBox="0 0 361.9 93"><style>.st10{fill:#fdc20f}</style><defs><path id="SVGID_3_" d="M-.5-.5h362.3V93H-.5z"/></defs><clipPath id="SVGID_1_"><use xlink:href="#SVGID_3_" overflow="visible"/></clipPath><path d="M.6.5V92h334.9s25.2 0 25.2-25.2V.5H.6z" clip-path="url(#SVGID_1_)" fill="#050508"/><path d="M.6.5V92h334.9s25.2 0 25.2-25.2V.5H.6z" clip-path="url(#SVGID_1_)" fill="none" stroke="#96812f" stroke-width=".883"/><path d="M.6.5V92h334.9s25.2 0 25.2-25.2V.5H.6z" clip-path="url(#SVGID_1_)" fill="none" stroke="#e3bf22" stroke-width=".883"/><path class="st10" d="M37.9 70.5v-2l12.8-2.9-12.8-3v-1.9l14.9 3.7v2.4zm0-17.1h14.9v1.9H37.9zm0-5.4v-1.9l12.8-3-12.8-3v-1.9L52.8 42v2.3zm9.3-16.5v-4.1l-7.2 2 7.2 2.1zm-9.3-.9v-2.5L52.8 24v2l-4.1 1.1v4.8l4.1 1.1v1.9l-14.9-4.3z"/><defs><path id="SVGID_5_" d="M-.5-.5h362.3V93H-.5z"/></defs><clipPath id="SVGID_2_"><use xlink:href="#SVGID_5_" overflow="visible"/></clipPath><path d="M295.7 45.5c9.3-.5 18.3-1.1 26.7-1.7v-2h-13.9v-7.2h14.8V24h-27.7v21.5zM261.5 47c9.2-.3 18.1-.7 26.8-1.1v-4.1h-13.9v-7.2h14.8V24h-27.7v23zm-7.1.3c0-14.4 0-24.1-16.6-24.1s-16.6 9.8-16.6 24.2v.6c4.5-.1 8.9-.2 13.3-.2v-.5c0-13.6.5-15.6 3.3-15.6s3.3 2 3.3 15.6v.3c4.5-.1 9-.2 13.3-.3m-84.8.8c8.8.1 17.7.2 26.7.2v-6.5h-13.9v-7.2h14.8V24h-27.7v24.1zm-22.4-25c-16.6 0-16.6 9.8-16.6 24.2 4.4.1 8.8.3 13.3.4v-.4c0-13.2.1-15.6 3.5-15.6 2.6 0 2.6 3.7 2.6 5.7v3.8h12.5v-3.4c0-7.2-1.6-14.7-15.3-14.7m-31.5.9H99.5l-5.1 21.8c3.7.2 7.4.4 11.2.5l1.9-12.2h.1l1.8 12.3c3.8.2 7.7.3 11.6.4L115.7 24zm-56 19.7c8.5.6 17.4 1.2 26.7 1.8v-3.7H72.6v-7.2h14.8V24H59.7v19.7z" clip-path="url(#SVGID_2_)" fill="#dbdcdc"/><path d="M295.7 45.5v25.1h12.9V51.9h13.9v-8.2c-8.5.7-17.4 1.3-26.8 1.8M261.5 47v23.5h12.9V51.9h13.9v-6.1c-8.6.5-17.6.9-26.8 1.2m-20.4.6c0 13.3-.5 15.3-3.3 15.3-2.7 0-3.3-1.9-3.3-15.1-4.4.1-8.8.2-13.3.2 0 14.4.3 23.5 16.6 23.5 16.6 0 16.6-9.3 16.6-24.2v-.1c-4.3.2-8.8.3-13.3.4m-58.6 4.3h13.9v-3.6c-9.1 0-18-.1-26.7-.2v22.4H198V60h-15.4v-8.1zM150.3 55c0 5.8-.8 7.9-2.9 7.9-3.1 0-3.5-1.9-3.5-15.2-4.5-.1-8.9-.2-13.3-.4 0 14.9 0 24.2 16.6 24.2 11.3 0 15.6-6.3 15.6-17.1v-2.9h-12.5V55zm-40.9-8.5l1 6.8h-5.9l1.1-6.9c-3.8-.2-7.5-.3-11.2-.5l-5.8 24.7h13.3l1.3-7.1h8.6l1.4 7.1h13.3L121 47c-3.9-.1-7.8-.3-11.6-.5m-49.7-2.8v26.9h12.9V51.9h13.9v-6.5c-9.4-.5-18.3-1.1-26.8-1.7" clip-path="url(#SVGID_2_)" fill="#fff"/><path class="st10" d="M202.9 42.4H216V51h-13.1z"/></svg>