<svg id="Layer_1" xmlns="http://www.w3.org/2000/svg" xmlns:xlink="http://www.w3.org/1999/xlink" viewBox="0 0 385.8 48.8"><style>.st13{fill:#0075bc}</style><path class="st13" d="M23.7 9.5V28L9.2 9.5H1.3v30.3h7.9V21.2h.1l14.4 18.6h7.9V9.5z"/><defs><path id="SVGID_7_" d="M1.3.8h384v47.5H1.3z"/></defs><clipPath id="SVGID_1_"><use xlink:href="#SVGID_7_" overflow="visible"/></clipPath><path d="M65.1 9.5v17.1c0 3.9-.2 7.8-3.2 10.7-2.5 2.5-6.5 3.4-10.1 3.4-3.5 0-7.5-.9-10.1-3.4-3-2.9-3.2-6.8-3.2-10.7V9.5h7.9v16c0 3.9.3 8.2 5.3 8.2 5.1 0 5.3-4.3 5.3-8.2v-16h8.1zM80 23h.8c2.6 0 5.5-.5 5.5-3.8s-2.9-3.8-5.5-3.8H80V23zm17.3 16.8h-9.8L80 28.1v11.7h-7.9V9.5h11.8c6 0 10.5 2.9 10.5 9.3 0 4.2-2.3 7.8-6.6 8.6l9.5 12.4zm20.8-22.5c-1.4-1.2-3.3-2-5.2-2-1.4 0-3.4.8-3.4 2.5 0 1.8 2.1 2.5 3.5 2.9l2 .6c4.2 1.2 7.5 3.4 7.5 8.3 0 3-.7 6.1-3.1 8.2-2.4 2-5.5 2.9-8.6 2.9-3.8 0-7.6-1.3-10.7-3.5l3.4-6.4c2 1.7 4.3 3.1 7 3.1 1.9 0 3.8-.9 3.8-3.1s-3.1-3-4.8-3.5c-4.9-1.4-8.2-2.7-8.2-8.6 0-6.2 4.4-10.2 10.5-10.2 3.1 0 6.8 1 9.5 2.5l-3.2 6.3z" clip-path="url(#SVGID_1_)" fill="#0075bc"/><path class="st13" d="M136.1 16.1v5.1h8.9v6.7h-8.9v5.2h9.4v6.7h-17.3V9.5h17.3v6.6z"/><defs><path id="SVGID_9_" d="M1.3.8h384v47.5H1.3z"/></defs><clipPath id="SVGID_2_"><use xlink:href="#SVGID_9_" overflow="visible"/></clipPath><path d="M169 17.3c-1.4-1.2-3.3-2-5.2-2-1.4 0-3.4.8-3.4 2.5 0 1.8 2.1 2.5 3.5 2.9l2 .6c4.2 1.2 7.5 3.4 7.5 8.3 0 3-.7 6.1-3.1 8.2-2.4 2-5.5 2.9-8.6 2.9-3.8 0-7.6-1.3-10.7-3.5l3.4-6.4c2 1.7 4.3 3.1 7 3.1 1.9 0 3.8-.9 3.8-3.1s-3.1-3-4.8-3.5c-4.9-1.4-8.2-2.7-8.2-8.6 0-6.2 4.4-10.2 10.5-10.2 3.1 0 6.8 1 9.5 2.5l-3.2 6.3z" clip-path="url(#SVGID_2_)" fill="#0075bc"/><path class="st13" d="M265.9 39.8H258V16.1h-6.5V9.5h20.9v6.6h-6.5zm19.3-23.7v5.1h8.9v6.7h-8.9v5.2h9.3v6.7h-17.2V9.5h17.2v6.6z"/><defs><path id="SVGID_11_" d="M1.3.8h384v47.5H1.3z"/></defs><clipPath id="SVGID_4_"><use xlink:href="#SVGID_11_" overflow="visible"/></clipPath><path d="M323.1 19.6c-1.6-2.2-4.2-3.3-6.9-3.3-4.8 0-8.1 3.7-8.1 8.4 0 4.8 3.3 8.2 8.2 8.2 2.6 0 5.1-1.2 6.8-3.2v9.5c-2.6.8-4.5 1.4-7 1.4-4.2 0-8.2-1.6-11.4-4.5-3.3-3-4.9-7-4.9-11.5 0-4.1 1.6-8.1 4.5-11.1 3-3.1 7.3-4.9 11.5-4.9 2.5 0 4.9.6 7.2 1.5v9.5z" clip-path="url(#SVGID_4_)" fill="#0075bc"/><path class="st13" d="M349.2 21.2V9.5h7.9v30.3h-7.9V27.3h-11.3v12.5H330V9.5h7.9v11.7z"/><defs><path id="SVGID_13_" d="M1.3.8h384v47.5H1.3z"/></defs><clipPath id="SVGID_6_"><use xlink:href="#SVGID_13_" overflow="visible"/></clipPath><path d="M380.9 17.3c-1.4-1.2-3.3-2-5.2-2-1.4 0-3.4.8-3.4 2.5 0 1.8 2.1 2.5 3.5 2.9l2 .6c4.2 1.2 7.5 3.4 7.5 8.3 0 3-.7 6.1-3.1 8.2-2.4 2-5.5 2.9-8.6 2.9-3.8 0-7.6-1.3-10.7-3.5l3.4-6.4c2 1.7 4.3 3.1 7 3.1 1.9 0 3.8-.9 3.8-3.1s-3.1-3-4.8-3.5c-4.9-1.4-8.2-2.7-8.2-8.6 0-6.2 4.4-10.2 10.5-10.2 3.1 0 6.8 1 9.5 2.5l-3.2 6.3z" clip-path="url(#SVGID_6_)" fill="#0075bc"/><path d="M237.7 24.6c0 13.1-10.6 23.8-23.8 23.8-13.1 0-23.8-10.6-23.8-23.8 0-13.1 10.6-23.8 23.8-23.8 13.2 0 23.8 10.7 23.8 23.8" clip-path="url(#SVGID_6_)" fill="#ee3124"/><path fill="#fff" d="M216.5 9.6v12.5h12.4v5h-12.4v12.5h-5.1V27.1H199v-5h12.4V9.6z"/></svg>