<svg id="Layer_1" xmlns="http://www.w3.org/2000/svg" viewBox="0 0 338.6 92.6"><style>.st0{fill:#272660}.st1{fill:#be202e}</style><path class="st0" d="M230.3 79.4l4 9.9c.2.5.5.9.8 1 .3.2.6.3 1.1.4v.2h-5.6v-.2c.8 0 1.1-.3 1.1-.7v-.3c0-.1-.1-.3-.1-.4 0-.1-.1-.2-.1-.3l-1-2.4H227l-1 2.4c-.1.3-.2.5-.2.8 0 .4.1.6.3.7.2.1.5.2.8.2v.2h-3.5v-.2c.4 0 .7-.2 1-.5.3-.3.6-.8.9-1.6l3.3-9.2h1.7zm-3.1 6.5h2.9l-1.5-3.9-1.4 3.9z"/><path class="st0" d="M236.2 91.1h-5.9v-.5h.1c1-.1 1-.4 1-.5v-.3c0-.1-.1-.2-.1-.4 0-.1-.1-.2-.1-.2l-.9-2.3H227l-.8 2.2c-.1.3-.2.5-.2.7 0 .3.1.5.2.6.2.1.4.2.7.2h.1v.5h-3.8v-.5h.1c.3 0 .7-.2.9-.5.3-.3.6-.8.9-1.6l3.4-9.3h1.7l4 10c.2.5.4.8.7 1 .3.2.6.3 1 .4h.1v.5zm-5.2-.3h4.7c-.3-.1-.6-.2-.8-.3-.3-.2-.6-.6-.8-1.1l-3.9-9.8h-1.3l-3.3 9.1c-.3.8-.6 1.4-1 1.7-.2.2-.5.4-.8.5h2.8c-.2 0-.3-.1-.5-.2-.3-.1-.4-.4-.4-.8 0-.2.1-.5.2-.8l.9-2.4h3.7l1 2.5s0 .1.1.3c0 .1.1.3.1.4v.3c.1.2-.2.4-.7.6zm-.7-4.8h-3.4l1.6-4.4 1.8 4.4zm-2.9-.3h2.5l-1.3-3.3-1.2 3.3zm16.5-6.2h8.2c.4 0 .7 0 .9-.1h.2l.1 2.7h-.2c-.1-.8-.3-1.3-.6-1.5-.3-.2-.6-.3-1-.3h-2.2v9c0 .3 0 .6.1.8.1.2.2.4.4.5.2.1.5.2.9.2v.2h-5.6v-.2c.6 0 1-.1 1.2-.4.2-.3.3-.6.3-1.1v-9h-2.2c-.4 0-.7.1-.9.3-.2.2-.5.7-.7 1.5h-.2l.1-2.7h.2c.3 0 .6.1 1 .1z"/><path class="st0" d="M251 91.1h-5.9v-.5h.2c.6 0 .9-.1 1.1-.3.2-.2.2-.6.2-1v-8.9h-2.1c-.3 0-.6.1-.8.3-.2.2-.4.7-.7 1.4v.1h-.5l.1-3h.4c.2.1.5.1.9.1h8.2c.4 0 .7 0 .9-.1h.5l.1 3h-.6v-.1c-.1-.9-.4-1.3-.5-1.4-.3-.2-.6-.3-.9-.3h-2.1v8.9c0 .3 0 .5.1.7.1.2.2.3.4.4.2.1.5.2.9.2h.2v.5zm-5.1-.3h4.2c-.1 0-.2-.1-.3-.1-.2-.2-.4-.4-.5-.6-.1-.2-.1-.5-.1-.8V80h2.4c.4 0 .8.1 1.1.4.3.2.4.6.6 1.1v-2h-.1c-.3.1-.6.1-1 .1H244c-.4 0-.7 0-1-.1h-.1l-.1 2.3c.2-.7.4-1.1.7-1.4.3-.3.6-.4 1-.4h2.4v9.2c0 .5-.1.9-.3 1.2-.2.1-.4.3-.7.4zm40-11.3v.2c-.4.1-.8.2-1.1.5-.3.3-.6.8-1 1.8l-3.3 9.1h-.3l-4-9.8c-.2-.5-.4-.9-.7-1.1-.3-.2-.7-.4-1.2-.4v-.2h5.4v.2c-.3 0-.5.1-.6.1-.2.1-.2.2-.2.5 0 .2.1.5.2.8l2.3 5.6 1.8-5c.2-.4.2-.8.2-1.1 0-.2-.1-.4-.2-.6s-.5-.4-1-.4v-.2h3.7z"/><path class="st0" d="M280.6 91.2h-.5l-4.1-9.9c-.2-.5-.4-.8-.7-1-.3-.2-.6-.3-1.1-.4h-.1v-.5h5.7v.5h-.1c-.2 0-.5.1-.6.1 0 0-.2.1-.2.4 0 .2.1.4.2.7l2.2 5.3 1.7-4.6c.1-.4.2-.7.2-1 0-.2-.1-.3-.2-.5s-.4-.3-.9-.3h-.1v-.5h4.1v.5h-.1c-.4.1-.8.2-1 .5-.3.2-.6.8-.9 1.7l-3.5 9zm-.3-.3h.1l3.3-9c.3-.9.7-1.5 1-1.8.2-.2.5-.4.8-.4h-3c.3.1.5.2.7.4.2.2.2.5.2.7 0 .3-.1.7-.2 1.1l-2 5.4-2.4-6c-.1-.4-.2-.6-.2-.9 0-.3.1-.6.3-.7.1 0 .1 0 .2-.1h-4.3c.3.1.6.2.8.4.3.3.6.6.8 1.2l3.9 9.7zm13.5-11.2v-.2h5.5v.2c-.6 0-1 .1-1.2.4-.2.3-.3.6-.3 1.1v8c0 .3 0 .5.1.7 0 .2.2.4.4.5s.5.2.9.2h.1v.2h-5.5v-.2c.6 0 1-.1 1.2-.4.2-.3.3-.6.3-1.1v-8c0-.5-.1-.9-.4-1.1-.3-.2-.7-.3-1.1-.3z"/><path class="st0" d="M299.4 91.1h-5.8v-.5h.2c.6 0 .9-.1 1.1-.3.2-.2.2-.6.2-1v-8c0-.5-.1-.8-.3-1-.2-.2-.5-.3-1-.3h-.2v-.5h5.8v.5h-.2c-.6 0-.9.1-1.1.3-.2.2-.2.6-.2 1v8c0 .2 0 .5.1.6 0 .2.1.3.3.5.2.1.5.2.8.2h.2v.5zm-5-.3h4.2c-.2 0-.3-.1-.4-.2-.2-.2-.4-.4-.4-.6-.1-.2-.1-.5-.1-.7v-8c0-.5.1-.9.3-1.2.1-.2.3-.3.6-.4h-4.2c.2.1.4.2.5.3.3.3.4.7.4 1.3v8c0 .5-.1.9-.3 1.2-.1 0-.3.2-.6.3zm24.4-11.3v.2c-.4.1-.8.2-1.1.5-.3.3-.6.8-1 1.8l-3.3 9.1h-.3l-4-9.8c-.2-.5-.4-.9-.7-1.1-.3-.2-.7-.4-1.2-.4v-.2h5.4v.2c-.3 0-.5.1-.6.1-.2.1-.2.2-.2.5 0 .2.1.5.2.8l2.3 5.6 1.8-5c.2-.4.2-.8.2-1.1 0-.2-.1-.4-.2-.6-.1-.2-.5-.4-1-.4v-.2h3.7z"/><path class="st0" d="M313.5 91.2h-.5l-4.1-9.9c-.2-.5-.4-.8-.7-1-.3-.2-.6-.3-1.1-.4h-.1v-.5h5.7v.5h-.1c-.2 0-.5.1-.6.1 0 0-.2.1-.2.4 0 .2.1.4.2.7l2.2 5.3 1.7-4.6c.1-.4.2-.7.2-1 0-.2-.1-.3-.2-.5s-.4-.3-.9-.3h-.1v-.5h4.1v.5h-.1c-.4.1-.8.2-1 .5-.3.2-.6.8-.9 1.7l-3.5 9zm-.3-.3h.1l3.3-9c.3-.9.7-1.5 1-1.8.2-.2.5-.4.8-.4h-3c.3.1.5.2.7.4.2.2.2.5.2.7 0 .3-.1.7-.2 1.1l-2 5.4-2.4-6c-.1-.4-.2-.6-.2-.9 0-.3.1-.6.3-.7.1 0 .1 0 .2-.1h-4.3c.3.1.6.2.8.4.3.3.6.6.8 1.2l3.9 9.7zm18.2-11.5l4 9.9c.2.5.5.9.8 1 .3.2.6.3 1.1.4v.2h-5.6v-.2c.8 0 1.1-.3 1.1-.7v-.3c0-.1-.1-.3-.1-.4 0-.1-.1-.2-.1-.3l-1-2.4H328l-.8 2.3c-.1.3-.2.5-.2.8 0 .4.1.6.3.7.2.1.5.2.8.2v.2h-3.5v-.2c.4 0 .7-.2 1-.5.3-.3.6-.8.9-1.6l3.3-9.2h1.6zm-3.1 6.5h2.9l-1.5-3.9-1.4 3.9z"/><path class="st0" d="M337.4 91.1h-5.9v-.5h.1c1-.1 1-.4 1-.5v-.3c0-.1-.1-.2-.1-.4 0-.1-.1-.2-.1-.2l-.9-2.3h-3.3l-.8 2.2c-.1.3-.2.5-.2.7 0 .3.1.5.2.6.2.1.4.2.7.2h.1v.5h-3.8v-.5h.1c.3 0 .7-.2.9-.5.3-.3.6-.8.9-1.6l3.4-9.3h1.7l4 10c.2.5.4.8.7 1 .3.2.6.3 1 .4h.1v.5zm-5.2-.3h4.7c-.3-.1-.6-.2-.8-.3-.3-.2-.6-.6-.8-1.1l-3.9-9.8H330l-3.3 9.1c-.3.8-.6 1.4-1 1.7-.2.2-.5.4-.8.5h2.8c-.2 0-.3-.1-.5-.2-.3-.2-.4-.4-.4-.8 0-.2.1-.5.2-.8l.9-2.4h3.7l1 2.5s0 .1.1.3c0 .1.1.3.1.4v.3c.1.2-.1.4-.6.6zm-.7-4.8h-3.4l1.6-4.4 1.8 4.4zm-3-.3h2.5l-1.3-3.3-1.2 3.3z"/><path class="st1" d="M129.6 17.7v.6c-1.3.2-2.4.6-3.3 1.3-.9.7-1.6 1.7-2.2 2.8-.6 1.2-1.3 2.7-2.1 4.6-.1.1-.2.4-.4.8l-15 43.1h-.5L88.5 24.4c0-.1 0-.2-.1-.4-.7-2-1.6-3.5-2.7-4.4-1.1-.9-2.5-1.4-4.2-1.3v-.6h17.1v.6c-1.4.1-2.6.4-3.5.8-.9.4-1.3 1.4-1.3 3 0 .4.2 1.3.6 2.6 0 .1.1.2.1.4 0 .1.1.2.1.3l13.6 36.5h.1L120 28c.8-2.3 1.2-4.1 1.2-5.3 0-1.9-.4-3-1.2-3.5-.8-.5-2-.8-3.5-.9v-.6h13.1z"/><path class="st1" d="M107.2 71.7h-1.5L87.8 24.5l-.1-.1c-.7-1.9-1.5-3.3-2.5-4.1-1-.8-2.1-1.2-3.6-1.2h-.8v-2h18.5v2l-.7-.1c-1.3.1-2.4.4-3.2.8-.6.3-.9 1.1-.9 2.4 0 .2.1.8.5 2.4 0 .1.1.2.1.4 0 .1.1.2.1.3l13 34.8 11.1-32.3c.8-2.2 1.2-3.9 1.2-5 0-1.6-.3-2.6-.8-2.9-.7-.4-1.7-.7-3.2-.8h-.7v-2h14.5v2l-.6.1c-1.2.1-2.1.5-2.9 1.2-.8.7-1.5 1.5-2 2.6-.6 1.1-1.3 2.7-2.1 4.6l-.1.1-.1.1s-.1.1-.2.5l-15.1 43.4zm-18-47.4l17.2 45.3 2.4-7h-1.1L93.9 25.7c0-.1-.1-.2-.1-.4 0-.1-.1-.2-.1-.3-.6-1.9-.6-2.6-.6-2.9 0-1.9.6-3.1 1.7-3.7.1 0 .1-.1.2-.1h-9.8c.3.2.7.4 1 .7 1.2 1 2.2 2.6 2.9 4.7 0 .2.1.4.1.6zm31-5.9c.1 0 .2.1.3.2 1 .6 1.5 2 1.5 4.1 0 1.3-.4 3.1-1.3 5.5l-11.4 32.9L121 27.7c.1-.4.2-.8.4-1 .8-1.9 1.5-3.4 2.1-4.6.7-1.2 1.5-2.3 2.4-3.1.3-.3.6-.5 1-.7h-6.7zm27.2-.1v-.6h31v8.2h-.5c0-4.4-2.9-6.6-8.7-6.6h-10.8v23.6h9.5c1.9 0 3.6-.3 5-.9 1.5-.6 2.3-2 2.5-4.2h.5v11.8h-.5c-.2-1.3-.6-2.4-1.2-3.1-.6-.7-1.2-1.2-1.7-1.4-.6-.2-1.1-.4-1.5-.4-.8-.1-1.7-.2-2.6-.2h-10v18.4c0 1.4.3 2.6.8 3.6s1.8 1.5 3.7 1.5h7.7c1.9 0 3.4-.3 4.6-.8 1.2-.5 2.1-1.3 2.8-2.3.7-1 1.3-2.1 1.7-3.5h.5l-1.8 8.1h-31v-.6h.7c1.1 0 2.2-.4 3.2-1.3 1.1-.9 1.6-2.4 1.6-4.4v-39c0-1.6-.4-3-1.1-4.2-.7-1.2-2-1.8-3.8-1.8h-.6z"/><path class="st1" d="M179 70.4h-32.3v-2h1.4c.9 0 1.8-.4 2.8-1.2.9-.7 1.3-2 1.3-3.8V24.2c0-1.5-.3-2.7-1-3.8-.6-1-1.6-1.4-3.1-1.4h-1.4v-2h32.4v9.6h-1.9v-.7c0-3.9-2.6-5.8-8-5.8H159v22.2h8.8c1.8 0 3.4-.3 4.8-.9 1.2-.5 1.9-1.7 2.1-3.6l.1-.6h1.9v13.2h-1.9l-.1-.6c-.2-1.2-.5-2.1-1-2.7-.5-.6-1-1-1.5-1.2-.5-.2-.9-.3-1.3-.3h-.1c-.8-.1-1.7-.2-2.5-.2H159v17.7c0 1.3.2 2.4.7 3.3.4.8 1.4 1.1 3 1.1h7.7c1.7 0 3.2-.3 4.3-.7 1.1-.5 1.9-1.2 2.6-2 .6-.9 1.2-2 1.6-3.3l.2-.5h1.9l-2 9.4zm-28-1.5h26.8l.8-3.6-.1.1c-.8 1.1-1.8 1.9-3.1 2.5-1.3.6-2.9.9-4.9.9h-7.7c-2.2 0-3.7-.6-4.3-1.9-.6-1.1-.9-2.4-.9-3.9V43.8h10.7c.9 0 1.8.1 2.7.2.5 0 1.1.1 1.7.4.7.3 1.4.8 2 1.6.2.2.3.4.5.7v-5.8c-.5.8-1.2 1.4-2.1 1.8-1.6.6-3.4 1-5.3 1h-10.2v-25h11.5c4.9 0 7.3 1.5 8.5 3.5v-3.7h-26.4c.5.3.9.8 1.2 1.3.8 1.3 1.2 2.8 1.2 4.5v39.1c0 2.2-.6 3.9-1.8 4.9-.2.2-.5.4-.8.6zm64.3-51.2v.6c-1.6 0-2.9.4-3.9 1.3-1.1.9-1.6 2.3-1.6 4.3v39.4c0 2 .6 3.5 1.7 4.4 1.2.9 2.4 1.4 3.8 1.4v.6h-16.5v-.6c1.5 0 2.8-.4 3.9-1.3s1.6-2.3 1.6-4.4V23.9c0-2.2-.5-3.6-1.6-4.4-1.1-.8-2.4-1.2-3.9-1.2v-.6h16.5z"/><path class="st1" d="M216 70.4h-17.9v-2h.7c1.3 0 2.5-.4 3.4-1.2.9-.7 1.4-2 1.4-3.8V23.9c0-1.9-.5-3.2-1.3-3.9-1-.7-2.1-1.1-3.5-1.1h-.7v-2H216v2h-.7c-1.4 0-2.5.4-3.5 1.1-.9.7-1.4 2-1.4 3.8v39.4c0 1.8.5 3 1.5 3.8 1 .8 2.1 1.2 3.4 1.2h.7v2.2zm-13.7-1.5h9.7c-.3-.2-.6-.4-1-.6-1.3-1-2-2.7-2-4.9V23.9c0-2.2.6-3.9 1.9-4.9l.9-.6h-9.5c.3.1.5.3.8.5 1.3.9 1.9 2.6 1.9 5v39.4c0 2.3-.6 3.9-1.9 4.9-.2.3-.5.5-.8.7zm86.5-51.2v.6c-1.3.2-2.4.4-3.1.8-.8.3-1.4 1-1.8 2-.4 1-.6 2.4-.6 4.3V71h-.4L243 26.4v31.9c0 2.7.1 4.6.3 5.9.2 1.3.5 2.2.9 2.8.9 1.2 2.4 1.9 4.5 2v.6h-13V69c1.5-.1 2.6-.4 3.4-.9.8-.6 1.4-1.6 1.7-3 .3-1.5.5-3.7.5-6.6V24.6l-1.7-1.9c-1.5-1.7-2.8-2.8-3.7-3.3-.9-.5-2.1-.8-3.4-1v-.6h9.8l39.3 44V28.2c0-2.5-.1-4.4-.3-5.6-.2-1.2-.7-2.2-1.6-3-.9-.8-2.2-1.2-4-1.2v-.6h13.1z"/><path class="st1" d="M283.9 71.7h-1.4l-38.8-43.3v30.1c0 2.6.1 4.6.3 5.8.2 1.5.6 2.2.8 2.5.7 1 2.1 1.6 4 1.7h.7v2h-14.4v-2h.7c1.3-.1 2.3-.3 3-.8.7-.4 1.1-1.3 1.4-2.6.3-1.4.5-3.6.5-6.5V24.9l-1.5-1.7c-1.5-1.7-2.6-2.7-3.5-3.1-.8-.4-1.9-.8-3.2-1l-.6-.1v-2h10.8l38.2 42.8V28.2c0-2.5-.1-4.3-.3-5.5-.2-1.1-.6-1.9-1.4-2.6-.7-.6-1.9-1-3.6-1.1h-.7v-2h14.5v2l-.6.1c-1.2.2-2.2.4-2.9.7-.6.3-1.1.8-1.4 1.6-.4.9-.6 2.3-.6 4v46.3zm-41.6-47.1l40.2 44.9V25.4c0-2 .2-3.5.7-4.6.5-1.2 1.2-1.9 2.1-2.4h-5.9c.3.2.6.4.8.6 1 .9 1.6 2 1.8 3.4.2 1.3.3 3.2.3 5.8v35.4L242 18.4h-6.3l.6.3c1 .5 2.3 1.6 3.9 3.5l1.9 2.1v34.2c0 3-.2 5.3-.5 6.8-.4 1.6-1.1 2.8-2 3.5-.1.1-.2.1-.3.2h6c-.6-.4-1.2-.8-1.6-1.4-.5-.7-.8-1.7-1-3.1-.2-1.3-.3-3.3-.3-6V24.6zm92.5 3.1h-.6c-.3-2.5-1.4-4.7-3.3-6.6-1.9-1.9-4.3-2.8-7.4-2.8-2 0-3.8.5-5.3 1.4-1.6.9-2.8 2.2-3.6 3.8-.8 1.6-1.3 3.5-1.3 5.6 0 1.6.3 3.1.8 4.3.5 1.3 1.3 2.4 2.2 3.3 1 1 2.2 1.9 3.5 2.7 1.3.8 3.1 1.9 5.4 3.2 3.8 2.1 6.8 4.2 8.9 6.3 2.1 2.1 3.2 4.9 3.2 8.6 0 2.2-.6 4.3-1.7 6.4-1.1 2.1-2.9 3.7-5.2 5.1-2.3 1.3-5.2 2-8.6 2-2.1 0-4-.2-5.7-.7-1.6-.5-3.3-1.1-5-1.9-.7-.2-1.2-.4-1.4-.4-.5 0-.8.2-1 .5-.2.4-.4 1.1-.6 2.3h-.6v-13h.6c.8 3.8 2.5 6.7 4.9 8.6 2.4 2 5.4 2.9 8.9 2.9 2.6 0 4.7-.5 6.3-1.5 1.6-1 2.7-2.2 3.3-3.6.6-1.4.9-2.8.9-4.2 0-2.9-.9-5.3-2.7-7.1-1.8-1.8-4.5-3.7-8.1-5.7-2.5-1.4-4.3-2.4-5.5-3.2-1.2-.8-2.4-1.7-3.7-2.9-1.2-1.2-2.2-2.6-2.9-4.2-.7-1.6-1.1-3.5-1.1-5.6 0-2.4.6-4.8 1.9-7 1.3-2.2 3.1-4 5.5-5.4 2.4-1.4 5.1-2 8.1-2 2.3 0 4.6.4 7 1.2.4.2.9.3 1.5.3.8 0 1.3-.5 1.6-1.6h.6v10.9z"/><path class="st1" d="M321.9 71.5c-2.2 0-4.2-.2-5.9-.7-1.7-.5-3.4-1.1-5.1-2-.8-.3-1.1-.3-1.1-.3-.3 0-.3.1-.3.1-.1.2-.3.8-.6 2.2l-.1.6h-1.9V56.9h1.9l.1.6c.8 3.6 2.4 6.4 4.7 8.2 2.3 1.8 5.2 2.8 8.5 2.8 2.5 0 4.5-.5 6-1.4 1.5-.9 2.5-2 3-3.3.6-1.3.9-2.6.9-3.9 0-2.7-.8-4.9-2.5-6.6-1.7-1.8-4.4-3.6-7.9-5.5-2.5-1.4-4.4-2.4-5.6-3.2-1.2-.8-2.5-1.8-3.8-3-1.3-1.3-2.3-2.8-3.1-4.5-.8-1.7-1.2-3.7-1.2-5.9 0-2.6.7-5 2-7.4 1.3-2.3 3.3-4.2 5.8-5.6 2.5-1.4 5.3-2.1 8.4-2.1 2.3 0 4.8.4 7.2 1.2h.1c.3.1.7.2 1.2.2.2 0 .6 0 .9-1.1l.1-.5h1.8v12.5h-1.9l-.1-.6c-.3-2.3-1.3-4.4-3.1-6.2-1.7-1.8-4-2.6-6.9-2.6-1.9 0-3.5.4-5 1.3-1.4.9-2.6 2.1-3.3 3.6-.8 1.5-1.2 3.3-1.2 5.2 0 1.5.2 2.9.7 4.1.5 1.2 1.2 2.2 2.1 3.1.9.9 2.1 1.8 3.4 2.6 1.3.8 3.1 1.9 5.4 3.1 3.8 2.1 6.9 4.3 9 6.4 2.2 2.2 3.4 5.3 3.4 9.1 0 2.3-.6 4.6-1.8 6.7-1.2 2.2-3 4-5.4 5.3-2.2 1.3-5.2 2-8.8 2zm-12.1-4.4c.2 0 .6 0 1.7.4 1.7.8 3.4 1.5 5 1.9 1.6.4 3.4.7 5.5.7 3.3 0 6-.6 8.2-1.9 2.2-1.2 3.8-2.9 4.9-4.8 1.1-1.9 1.6-4 1.6-6.1 0-3.4-1-6.1-3-8-2.1-2-5-4.1-8.7-6.1-2.3-1.3-4.1-2.3-5.5-3.2-1.4-.9-2.6-1.8-3.6-2.8-1.1-1-1.9-2.2-2.4-3.6-.5-1.3-.8-2.9-.8-4.6 0-2.2.5-4.2 1.4-5.9.9-1.7 2.2-3.1 3.9-4.1 1.7-1 3.6-1.5 5.7-1.5 3.2 0 5.9 1 7.9 3.1 1.2 1.2 2 2.5 2.6 3.9v-6.1c-.5.5-1.1.6-1.4.6-.7 0-1.3-.1-1.8-.3-2.3-.7-4.6-1.1-6.7-1.1-2.9 0-5.5.7-7.7 1.9-2.3 1.3-4 3-5.2 5.1-1.2 2.1-1.8 4.4-1.8 6.7 0 2 .3 3.8 1 5.3s1.6 2.9 2.8 4c1.2 1.2 2.4 2.1 3.5 2.8 1.2.7 3 1.8 5.5 3.2 3.7 1.9 6.4 3.9 8.3 5.8 1.9 2 2.9 4.5 2.9 7.6 0 1.5-.3 3-1 4.5s-1.9 2.9-3.6 3.9c-1.7 1.1-4 1.6-6.7 1.6-3.7 0-6.8-1-9.4-3.1-1.9-1.5-3.4-3.6-4.4-6.3v7.2c.1-.3.5-.7 1.3-.7zM82.6.9H89c.3 0 .5 0 .7-.1h.2L90 3h-.2c-.1-.6-.2-1.1-.5-1.2-.2-.2-.5-.3-.8-.3h-1.7v7.4c0 .2 0 .5.1.6.1.2.2.3.3.4.2.1.4.2.7.2v.2h-4.3v-.2c.5 0 .8-.1.9-.3.1-.2.2-.5.2-.9V1.5H83c-.3 0-.5.1-.7.3-.1.2-.3.6-.4 1.2h-.2V.8h.2c.2.1.4.1.7.1z"/><path class="st1" d="M88.1 10.4h-4.5v-.5h.1c.4 0 .7-.1.8-.3.1-.2.2-.5.2-.8V1.6h-1.6c-.3 0-.5.1-.6.2-.2.2-.4.6-.5 1.2v.1h-.4l.1-2.4h.3c.2.1.4.1.7.1H89c.3 0 .5 0 .7-.1h.3l.1 2.4h-.4V3c-.1-.8-.3-1-.4-1.2-.2-.2-.4-.2-.7-.2H87v7.2c0 .2 0 .4.1.6 0 .1.1.3.3.4.1.1.4.1.7.1h.1v.5zm-3.9-.3h3.3c-.1 0-.2-.1-.3-.1-.2-.1-.3-.3-.4-.5-.1-.2-.1-.4-.1-.7V1.4h1.8c.3 0 .6.1.9.3.2.2.3.4.4.9V1h-7.2c-.3 0-.5 0-.8-.1v1.9c.2-.6.3-.9.5-1.1.2-.2.5-.3.8-.3h1.8v7.5c0 .4-.1.7-.2.9-.1.1-.3.3-.5.3zm15-5h4.3V2.3c0-.3-.1-.6-.2-.9-.1-.2-.4-.4-.9-.4h-.1V.9h4.3v.2c-.5 0-.8.1-.9.3-.1.2-.2.5-.2.9v6.5c0 .2 0 .4.1.6 0 .2.1.3.3.5.2.1.4.2.7.2h.1v.2h-4.3v-.2c.5 0 .8-.1.9-.3.1-.2.2-.5.2-.9V5.7h-4.3v3.1c0 .2 0 .4.1.6 0 .2.1.3.3.4.2.1.4.2.7.2h.1v.2h-4.3V10c.5 0 .8-.1.9-.3.1-.2.2-.5.2-.9V2.3c0-.3-.1-.6-.2-.9-.1-.2-.4-.4-.9-.4H96V.9h4.3v.2c-.5 0-.8.1-.9.3-.1.2-.2.5-.2.9v2.8z"/><path class="st1" d="M106.8 10.4h-4.5v-.5h.1c.4 0 .7-.1.8-.3.1-.2.2-.5.2-.8v-3h-4.1v3c0 .2 0 .4.1.5 0 .1.1.3.3.4.1.1.4.2.6.2h.2v.4H96v-.4h.1c.4 0 .7-.1.8-.3.1-.2.2-.5.2-.8V2.3c0-.3-.1-.6-.2-.8-.1-.2-.4-.3-.8-.3h-.2V.8h4.5v.4h-.1c-.4 0-.7.1-.8.3-.1.2-.2.5-.2.8V5h4.1V2.3c0-.3-.1-.6-.2-.8-.1-.2-.4-.3-.8-.3h-.2V.8h4.5v.4h-.1c-.4 0-.7.1-.8.3-.1.2-.2.5-.2.8v6.5c0 .2 0 .4.1.5 0 .1.1.3.3.4.1.1.4.2.6.2h.2v.5zm-3.9-.3h3.3c-.1 0-.3-.1-.3-.2-.2-.1-.3-.3-.3-.5s-.1-.4-.1-.6V2.3c0-.4.1-.7.2-1 .1-.2.3-.3.5-.3H103c.2.1.4.2.5.4.1.3.2.6.2.9v2.9h-4.6V2.3c0-.4.1-.7.2-1 .1-.2.3-.3.5-.3h-3.2c.2.1.4.2.5.4.1.3.2.6.2.9v6.5c0 .4-.1.7-.2.9-.1.2-.3.3-.5.3h3.3c-.1 0-.2-.1-.3-.2-.2-.1-.3-.3-.3-.5s-.1-.4-.1-.6V5.6h4.6v3.3c0 .4-.1.7-.2.9-.3.1-.4.3-.7.3zM119.4.9l.1 2.1h-.2c-.1-.4-.2-.6-.3-.9s-.2-.4-.4-.5-.4-.2-.8-.2H116v3.9h1.5c.4 0 .8-.1 1-.3.2-.2.3-.5.4-.9h.2v2.7h-.2c-.1-.4-.2-.7-.5-.8-.2-.1-.5-.2-.9-.2H116v2.7c0 .8.4 1.2 1.2 1.2h.6c.4 0 .7-.1.9-.2.2-.1.4-.3.6-.5.2-.2.3-.6.4-1h.2l-.1 2.2h-6.9V10c.5 0 .8-.1.9-.3.1-.2.2-.5.2-.9V2.3c0-.3-.1-.6-.2-.9-.1-.2-.4-.4-.9-.4h-.1V.9h6.6z"/><path class="st1" d="M119.8 10.4h-7.1v-.5h.1c.4 0 .7-.1.8-.3.1-.2.2-.5.2-.8V2.3c0-.3-.1-.6-.2-.8-.1-.2-.4-.3-.8-.3h-.2V.8h6.8l.1 2.3h-.4V3c-.1-.3-.2-.6-.3-.8-.1-.2-.2-.4-.4-.5-.2-.1-.4-.2-.7-.2H116v3.7h1.4c.4 0 .7-.1.9-.3.2-.2.3-.4.3-.8V4h.4v3h-.4v-.1c-.1-.4-.2-.6-.4-.7-.2-.2-.5-.2-.8-.2H116v2.6c0 .7.3 1 1.1 1h.6c.4 0 .7 0 .9-.1.2-.1.4-.3.5-.5.1-.2.3-.6.4-1v-.1h.4l-.1 2.5zm-6.5-.3h6.3l.1-1.8c-.1.3-.2.6-.4.8-.2.3-.4.5-.6.6-.3.1-.6.2-1 .2h-.6c-.8 0-1.3-.4-1.3-1.3V5.7h1.6c.4 0 .7.1.9.2.2.1.4.3.5.6v-2l-.3.6c-.2.2-.6.3-1 .3h-1.6V1.3h2c.3 0 .6.1.8.2.2.1.4.3.5.6.1.2.2.4.2.6l-.1-1.7h-5.9c.2.1.4.2.5.4.1.3.2.6.2.9v6.5c0 .4-.1.7-.2.9-.2.2-.4.4-.6.4z"/><linearGradient id="SVGID_1_" gradientUnits="userSpaceOnUse" x1=".953" y1="-277.627" x2="78.485" y2="-277.627" gradientTransform="matrix(1 0 0 -1 0 -236.002)"><stop offset="0" stop-color="#e92429"/><stop offset=".036" stop-color="#dc2833"/><stop offset=".142" stop-color="#b7314d"/><stop offset=".252" stop-color="#963660"/><stop offset=".364" stop-color="#7b386e"/><stop offset=".479" stop-color="#633a7a"/><stop offset=".597" stop-color="#4d3b83"/><stop offset=".72" stop-color="#3b3b89"/><stop offset=".85" stop-color="#2e3c8d"/><stop offset="1" stop-color="#2a3c8e"/></linearGradient><path d="M76.9 25.2c-6.2-13.7-20-23.3-36.2-23.3C18.7 1.9 1 19.7 1 41.6c0 22 17.8 39.7 39.7 39.7 17.6 0 32.6-11.5 37.8-27.4-1.2 2.3-2.8 4.3-4.6 6.1-2.4 3.4-6 7.3-9.5 8.2-1.2 1.3-3.7 1.7-4.1 2.5-5.9 2.4-8.8 1.5-14.6 1.2-.4 0-.6.1-.6.2-5.5-1.6-10.1-3-14.6-6.7-1.1-.9-2.6-2.2-3-2.2.6.7-.1.4.4 1.1-1.3-1.6.6-.9-1.5-3l-.5 1c0-1.6-2.6-2.7-3.1-4.9-.8-.4-.3.9.7 2.3-1.3-1.5-.8-1.9-1.6-3.2 0 .6-.1 1.1 0 1.7-.1-1.8-1.6-2.5-2.3-3.2.2-.2 1.1.3.3-1.5-.4-.8-.5-.3-.7-.4.2-.2.3-1-.1-2.3-.4-.1-.1 1-.4 1.2-.3-1-.5-1.8-.9-2.5-.2-1.8.5 0 .5-1.1-.8-2.7-1.1-.1-1.9-1-.1 2.2.7 5 .9 6.2-.4-1.4-.8-2.8-1-4.2-.3.4-1.2-2.7-1.1-.4-1.3-4.2-1-9.7.1-13.7 0 .6 0 1.4.2 1.3.6-2 .1-1.9-.1-2.4.6-1.5 1.2-1.2 1.9-1.9.5-3.2 1-3.5 1.5-6.3l.5.4c.5-1.9 1.4-1.7 2.2-3.6-.1-.2-.6.4-1.1.9-.1.1-.1.2-.2.3h-.1c-.4.4-.6.4.3-1-.2.5-.5 1-.3 1l.3-.3c1.2-1.4.5-1.7 1.8-3-.5.2-1 .5-1.4.8.9-1.2 2.5-2.7 1.5-2.5 2.2-1.6 5.3-4.8 8.3-6.1l-.6-.3c1.7-.4 5.4-3 7.1-2.7l.2-.3 3.3-.3c1.4-.4.8-1.1.9-.9 3.2-.6 5.7-.6 7.8-.9.5.7 3.9 1 6.4 1.7 6.3 1.1 12.4 4.6 16.8 9.4 1.7 2.1 3.2 4.3 4.4 6.6zM53.7 73c-.8.1-1.6.2-2.4.2l.9-.3c.5.1 1 .1 1.5.1zm-16.6-2.1c1.7.5 3.7 1.3 5.7 1.6.8 0 2.1 0 2.2-.3 0 .1 0 .2-.1.3 1.6.3 3.2.5 4.8.5-1 .1-2 .2-3 .2 1.3.4 4.4.1 4.8.6-4.3 0-11.3-.6-14.4-2.9zM19.8 22.5l-.1.4c-.6.4-1 1.3-1.5 1.8.5-.7 1.1-1.4 1.6-2.2z" fill="url(#SVGID_1_)"/><linearGradient id="SVGID_2_" gradientUnits="userSpaceOnUse" x1="20.902" y1="-277.082" x2="70.66" y2="-277.082" gradientTransform="matrix(1 0 0 -1 0 -236.002)"><stop offset="0" stop-color="#e92429"/><stop offset=".036" stop-color="#dc2833"/><stop offset=".142" stop-color="#b7314d"/><stop offset=".252" stop-color="#963660"/><stop offset=".364" stop-color="#7b386e"/><stop offset=".479" stop-color="#633a7a"/><stop offset=".597" stop-color="#4d3b83"/><stop offset=".72" stop-color="#3b3b89"/><stop offset=".85" stop-color="#2e3c8d"/><stop offset="1" stop-color="#2a3c8e"/></linearGradient><path d="M39.7 41.6c0-11.2 9.1-20.4 20.4-20.4 2.4 0 4.6.4 6.8 1.2-1.7-1.1-3.8-2-5.8-2.5-3.6-.8-9.3-.7-13.1 1.3l-.1-.2c-1.5.9-3.3 1.5-5 2.7l.7-.7c-1.3.4-1.8 1.1-2.9 1.8l-.2.9c-1.1.8-.8.1-1.6.6-.7 1.1-2.5 3.1-2.8 3.6 0 .5.5-.3.8-.4-.9 1.3-1.4.9-2.3 2.8l.1.1c-2.8 4.1-3.3 10.9-1.9 16.4-.2-.4-.2-.2-.4-.3 1.5 6 6.2 11.5 10.1 14.8-3-1.6-7.9-5.4-8.8-9.1-1-.9-1.4-3-2-3.3-1.9-4.7-1.2-7-1-11.7 0-.3-.1-.4-.2-.5 1.3-4.4 2.4-8.1 5.3-11.7.7-.9 1.8-2 1.7-2.4-.6.5-.3-.1-.8.3 1.3-1.1.7.4 2.4-1.2l-.8-.4c1.3 0 2.1-2.1 3.9-2.5.4-.6-.8-.3-1.8.6 1.1-1 1.6-.6 2.6-1.3h-1.4c1.4-.1 2-1.3 2.6-1.8.2.1-.2.9 1.2.2.6-.3.2-.4.3-.5.2.1.8.2 1.8-.1.1-.3-.8-.1-.9-.3.8-.3 1.4-.4 2-.7 1.5-.2 0 .4.9.4 2.1-.6 0-.9.8-1.5-1.8-.1-4 .5-5 .7 1.1-.4 2.2-.6 3.3-.8-.3-.2 2.2-1 .3-.9 3.4-1.1 7.7-.8 10.9.1-.5 0-1.1 0-1 .2 1.6.4 1.5 0 1.9-.1 1.2.5.9.9 1.6 1.5.5.1 1 .2 1.3.2-.2-.4-.7-.9-2-1.7l-.1.4c-.3-.3-.7-.6-1-.9-.5-.1-1 0-1.5-.1-1.3-2.1-7.1-2-10.2-2.5-1.3-.1-2.9.7-5.2 1l.1-.6c-1.9.7-8.4 3.5-8.9 5.8-1.7.4.1-.2-.2-.6-3.2 1.2-2.8 2.3-3.8 3.6-1.7 1.1 1-1.2-.1-.8-2 2.4-2.5 1.1-4.7 4.4 0 .5.8-.6 1.2-.8-2.3 1.6-4.7 6.3-5.8 10.2-1 4.6-.8 11.6 1.6 16.4l-.2.2c1.2 1.9 1.8 4.2 3.4 6.2l-.9-.9c.6 1.6 1.4 2.3 2.2 3.6l1.1.2c1 1.4.1.9.8 2 1.4.8 3.8 3.1 4.5 3.5.6 0-.3-.7-.4-1 1.6 1.3 1.1 1.7 3.4 2.9l.1-.1c5.2 3.6 13.7 4.1 20.5 2.4-.4.2-.3.3-.4.4 4-1 7.8-3.2 11.2-5.7-2.7 1.4-5.6 2.3-8.3 2.6-1.4.2-3.3-.2-5-.4 2-.3 2.2.1 4.2-.2 1.5-.4 1.8-1.2 2.9-1.8-.1.2-.3.4-.5.6 2-.2 1.2-.7 2.9-.8l-.4-.7c.6.1 1.8-.8 2.1-1.2l.7.2c.9-.9 1.5-1.4 1.5-2.1l.2.5c.1-.2 1.3-1.1 1.9-1.8-3.1 1.9-6.7 3-10.6 3-11-.1-20.2-9.2-20.2-20.5z" fill="url(#SVGID_2_)"/></svg>