<svg id="Layer_1" xmlns="http://www.w3.org/2000/svg" xmlns:xlink="http://www.w3.org/1999/xlink" viewBox="0 0 282.8 97.3"><style>.st20{opacity:.5}</style><path d="M282.4 63c0 18.7-15.2 33.8-33.8 33.8-18.7 0-33.8-15.2-33.8-33.8 0-18.7 15.2-33.8 33.8-33.8 18.7-.1 33.8 15.1 33.8 33.8zM67.9 63c0 18.7-15.1 33.8-33.8 33.8C15.3 96.8.2 81.6.2 63 .2 44.3 15.3 29.2 34 29.2c18.7-.1 33.9 15.1 33.9 33.8zm71.3 0c0 18.7-15.2 33.8-33.8 33.8-18.7 0-33.8-15.2-33.8-33.8 0-18.7 15.2-33.8 33.8-33.8 18.7-.1 33.8 15.1 33.8 33.8zm71.9 0c0 18.7-15.2 33.8-33.8 33.8-18.7 0-33.8-15.2-33.8-33.8 0-18.7 15.1-33.8 33.8-33.8 18.6-.1 33.8 15.1 33.8 33.8z" fill-rule="evenodd" clip-rule="evenodd" fill="#ee3124"/><path d="M33.8 69l9.3-18.2h4.2L33.8 76.7 20.3 50.8h4.3L33.8 69m69.3-18.2h3.9v24.5h-3.9zm73.8 18.1l9.2-18.1h4.2l-13.4 25.8-13.5-25.8h4.2l9.3 18.1m64.3-.2l-3.5 6.2h-4.2l14.8-25.6 14.8 25.6H259l-3.5-6.2h-14.3m7.2-12.7l-5.5 9.9h11l-5.5-9.9z" fill="#fff"/><path d="M42.5 16.2L49.1.9H52l-9.4 21.2L33.1.9h2.8l6.6 15.3zm32.3 4.7h-2.6V.9h2.6v20zm24.9 0h-2.6V.9h3.4c4.4 0 8.5 1 8.5 5.5 0 3.1-2.3 5.3-5.8 5.5l7.4 9h-3.2l-7-8.8h-.6v8.8zm0-10.7h.8c2.9 0 5.9-.5 5.9-3.6 0-3.3-2.8-3.6-5.9-3.6h-.8v7.2zM137 20.9h-2.6V3h-5.6V.9h13.9V3H137v17.9zm28.4-8.1c0 1.5-.1 3.2 1 4.5 1 1.2 3 1.9 4.7 1.9 1.7 0 3.5-.7 4.6-1.8 1.2-1.3 1.1-3 1.1-4.6V.9h2.6v12.5c0 2.2-.2 3.9-2 5.5-1.6 1.5-3.9 2.3-6.3 2.3-2.2 0-4.4-.7-6-2-2-1.7-2.3-3.5-2.3-5.8V.9h2.6v11.9zm39.7 2.4l-2.8 5.7h-2.8l10.7-21 10.5 21h-2.9l-2.7-5.7h-10zm5-10l-4 8h7.9l-3.9-8zm33.3 13.7h6.4V21h-9V1h2.6v17.9z" fill="#ee3124"/><g class="st20"><defs><path id="SVGID_15_" class="st20" d="M67.9 63c0 18.7-15.1 33.8-33.8 33.8C15.3 96.8.2 81.6.2 63 .2 44.3 15.3 29.2 34 29.2c18.7-.1 33.9 15.1 33.9 33.8z"/></defs><clipPath id="SVGID_1_"><use xlink:href="#SVGID_15_" overflow="visible"/></clipPath><linearGradient id="SVGID_2_" gradientUnits="userSpaceOnUse" x1="33.097" y1="68.448" x2="33.097" y2="-37.998"><stop offset="0" stop-color="#fff"/><stop offset=".042" stop-color="#fff" stop-opacity=".887"/><stop offset=".296" stop-color="#fff" stop-opacity=".2"/></linearGradient><ellipse cx="33.1" cy="15.2" rx="65.3" ry="53.2" opacity=".5" clip-path="url(#SVGID_1_)" fill="url(#SVGID_2_)"/></g><g class="st20"><defs><path id="SVGID_18_" class="st20" d="M139.2 63c0 18.7-15.1 33.8-33.8 33.8-18.7 0-33.8-15.2-33.8-33.8 0-18.7 15.1-33.8 33.8-33.8 18.7-.1 33.8 15.1 33.8 33.8z"/></defs><clipPath id="SVGID_4_"><use xlink:href="#SVGID_18_" overflow="visible"/></clipPath><linearGradient id="SVGID_6_" gradientUnits="userSpaceOnUse" x1="104.458" y1="68.448" x2="104.458" y2="-37.998"><stop offset="0" stop-color="#fff"/><stop offset=".042" stop-color="#fff" stop-opacity=".887"/><stop offset=".296" stop-color="#fff" stop-opacity=".2"/></linearGradient><ellipse cx="104.5" cy="15.2" rx="65.3" ry="53.2" opacity=".5" clip-path="url(#SVGID_4_)" fill="url(#SVGID_6_)"/></g><g class="st20"><defs><path id="SVGID_21_" class="st20" d="M211.1 63.1c0 18.7-15.1 33.8-33.8 33.8-18.7 0-33.8-15.2-33.8-33.8 0-18.7 15.1-33.8 33.8-33.8 18.6-.1 33.8 15.1 33.8 33.8z"/></defs><clipPath id="SVGID_8_"><use xlink:href="#SVGID_21_" overflow="visible"/></clipPath><linearGradient id="SVGID_10_" gradientUnits="userSpaceOnUse" x1="176.314" y1="68.549" x2="176.314" y2="-37.897"><stop offset="0" stop-color="#fff"/><stop offset=".042" stop-color="#fff" stop-opacity=".887"/><stop offset=".296" stop-color="#fff" stop-opacity=".2"/></linearGradient><ellipse cx="176.3" cy="15.3" rx="65.3" ry="53.2" opacity=".5" clip-path="url(#SVGID_8_)" fill="url(#SVGID_10_)"/></g><g class="st20"><defs><path id="SVGID_24_" class="st20" d="M282.4 63.1c0 18.7-15.1 33.8-33.8 33.8-18.7 0-33.8-15.2-33.8-33.8 0-18.7 15.1-33.8 33.8-33.8 18.7-.1 33.8 15.1 33.8 33.8z"/></defs><clipPath id="SVGID_12_"><use xlink:href="#SVGID_24_" overflow="visible"/></clipPath><linearGradient id="SVGID_14_" gradientUnits="userSpaceOnUse" x1="247.674" y1="68.549" x2="247.674" y2="-37.897"><stop offset="0" stop-color="#fff"/><stop offset=".042" stop-color="#fff" stop-opacity=".887"/><stop offset=".296" stop-color="#fff" stop-opacity=".2"/></linearGradient><ellipse cx="247.7" cy="15.3" rx="65.3" ry="53.2" opacity=".5" clip-path="url(#SVGID_12_)" fill="url(#SVGID_14_)"/></g></svg>