<svg id="Layer_1" xmlns="http://www.w3.org/2000/svg" viewBox="0 0 308.7 75.1"><style>.st0{fill:#e23326}</style><path class="st0" d="M2.6 35.2c.2-1.6.4-3.2.7-4.7 2.8-12.6 10-21.8 21.9-26.6C39.3-1.8 52.5.6 63.9 10.7c6.3 5.5 10 12.7 11.4 21C77.8 47.6 70 63 55.6 70.2c-13.2 6.7-29.5 4.6-40.6-5.3C8.4 59 4.4 51.6 3 42.9c-.2-1-.3-2-.4-3.1v-4.6zm36.5 17.4c4.9-9.5 9.8-18.7 14.7-28.2-1.4 0-2.5.1-3.7 0-.8 0-1.2.2-1.6 1-2.8 5.6-5.6 11.2-8.5 16.7-.3.6-.6 1.1-.9 1.8-1.3-2.5-2.5-4.9-3.7-7.3-2-3.9-3.9-7.7-5.9-11.6-.1-.2-.3-.5-.5-.5h-4.5c4.8 9.4 9.6 18.6 14.6 28.1zM116.4 1c19.8-.2 36.1 16 36.5 35.7.5 20.5-16.3 37.7-37.1 37.4-19.4-.3-36.2-16.2-36-37C80.1 16.7 96.9.8 116.4 1zm-2.6 36.6V50c0 .8.3 1 1 1 .7-.1 1.5 0 2.2 0 1.2 0 1.2 0 1.2-1.2V24.9c0-.5-.2-.7-.7-.7-.9 0-1.8.1-2.7 0-.9-.1-1.1.3-1.1 1.1.1 4.1.1 8.2.1 12.3zm116.9-.1c.1 19.9-16.3 36.3-36 36.6-20.3.3-37.1-16.1-37.1-36.4-.1-20.3 16.3-36.2 35.5-36.7 20.2-.5 37.5 15.5 37.6 36.5zM179 24.3c5 9.5 9.8 18.8 14.8 28.2 5-9.5 9.8-18.8 14.7-28.3h-3.9c-.6 0-1 .2-1.3.8-3 5.9-6 11.8-9 17.8-.1.3-.3.6-.5 1-.3-.6-.5-.9-.7-1.3l-9-17.7c-.1-.2-.4-.5-.6-.5H179zM271.4 1c19.4-.2 36.2 15.6 36.6 35.7.4 21-16.5 37.1-35.9 37.4-20.5.3-37-16.2-37.2-36.2C234.7 17.1 251.7.8 271.4 1zm-.4 21.6c-5.4 9.4-10.8 18.6-16.2 27.9h3.9c.6 0 1-.2 1.2-.8 1-1.7 2-3.4 2.9-5.2.3-.5.7-.8 1.3-.8h13.6c.6 0 .9.2 1.2.7 1 1.8 2 3.5 3 5.2.2.3.4.7.6.7 1.4.1 2.9 0 4.5 0-5.2-9.2-10.5-18.3-16-27.7z"/><path class="st0" d="M271 30.2c2 3.6 3.9 6.9 5.8 10.4h-11.6c1.9-3.4 3.8-6.8 5.8-10.4z"/></svg>