<svg id="Layer_1" xmlns="http://www.w3.org/2000/svg" viewBox="0 0 374.4 85.9"><style>.st0{fill:#ee3325}.st1{fill:#231f20}.st3{fill-rule:evenodd;clip-rule:evenodd;fill:#ee3325}</style><path class="st0" d="M255.7 23.1h1.8l2.4 6.7 2.5-6.7h1.7l-3.6 8.9h-1.4l-3.4-8.9z"/><path class="st1" d="M268.1 23.1h.9l3.7 8.9h-.9l-1-2.4h-4.7l-1 2.4h-.9l3.9-8.9zm.4.9l-2.1 4.9h4.1l-2-4.9zm6 6.4c.4.7 1.2 1.1 2 1.1 1.1 0 2-.7 2-1.7 0-2.5-4.6-1-4.6-4.4 0-1.6 1.4-2.4 2.9-2.4 1 0 1.8.3 2.4 1.1l-.7.5c-.4-.6-1-.9-1.7-.9-1.1 0-2 .6-2 1.7 0 2.7 4.6 1.1 4.6 4.4 0 1.6-1.3 2.5-2.8 2.5-1.2 0-2.2-.4-2.9-1.3l.8-.6zm14.4.2c-.8 1.2-2 1.6-3.3 1.6-2.7 0-4.6-2-4.6-4.7s1.9-4.7 4.6-4.7c1.2 0 2.3.4 3.1 1.4l-.7.6c-.6-.8-1.5-1.2-2.4-1.2-2.3 0-3.8 1.7-3.8 3.9s1.4 3.9 3.8 3.9c.9 0 2-.4 2.6-1.4l.7.6zm8.2-2c0 1.9-.8 3.6-3.2 3.6-2.4 0-3.2-1.7-3.2-3.6v-5.5h.8v5.3c0 1.3.3 3.1 2.4 3.1s2.4-1.8 2.4-3.1v-5.3h.8v5.5zm2.5-5.5h.8v8.1h4.2v.8h-5v-8.9zm9.4 0h.9l3.7 8.9h-.9l-1-2.4H307l-1 2.4h-.9l3.9-8.9zm.3.9l-2.1 4.9h4.1l-2-4.9zm5.9-.9h2.3c.7 0 3.2 0 3.2 2.3 0 1.7-1.3 2.2-2.3 2.3L321 32h-1l-2.5-4.2H316V32h-.8v-8.9zm.8 3.9h1.8c1.7 0 2.1-1 2.1-1.6s-.3-1.6-2.1-1.6H316V27z"/><path class="st0" d="M256.7 37.9h1.6v8.9h-1.6v-8.9z"/><path class="st1" d="M260.4 37.9h1.1l5.4 7.8v-7.8h.8v8.9h-1.1l-5.4-7.8v7.8h-.8v-8.9zm12.1.8h-3v-.8h6.9v.8h-3v8.1h-.8v-8.1zm5.5-.8h5.4v.8h-4.6v3.2h4.3v.8h-4.3v3.5h4.8v.8H278v-9.1zm7.8 0h2.3c.7 0 3.2 0 3.2 2.3 0 1.7-1.3 2.2-2.3 2.3l2.6 4.3h-.9l-2.5-4.2h-1.5v4.2h-.8v-8.9zm.8 3.9h1.8c1.7 0 2.1-1 2.1-1.6s-.3-1.6-2.1-1.6h-1.8v3.2z"/><path class="st0" d="M292 37.9h1.8l2.4 6.7 2.5-6.7h1.7l-3.6 8.9h-1.4l-3.4-8.9z"/><path class="st1" d="M301.6 37.9h5.4v.8h-4.6v3.2h4.3v.8h-4.3v3.5h4.8v.8h-5.6v-9.1zm7.8 0h1.1l5.4 7.8v-7.8h.8v8.9h-1.1l-5.4-7.8v7.8h-.8v-8.9zm12.1.8h-3v-.8h6.9v.8h-3v8.1h-.8v-8.1zm5.5-.8h.8v8.9h-.8v-8.9zm7.6-.2c2.7 0 4.6 2 4.6 4.7s-1.9 4.7-4.6 4.7c-2.7 0-4.6-2-4.6-4.7 0-2.8 1.9-4.7 4.6-4.7zm0 8.6c2.3 0 3.8-1.7 3.8-3.9s-1.4-3.9-3.8-3.9c-2.3 0-3.8 1.7-3.8 3.9s1.5 3.9 3.8 3.9zm6.8-8.4h1.1l5.4 7.8v-7.8h.8v8.9h-1.1l-5.4-7.8v7.8h-.8v-8.9zm12.8 0h.9l3.7 8.9h-.9l-1-2.4h-4.7l-1 2.4h-.9l3.9-8.9zm.4.9l-2.1 4.9h4.1l-2-4.9zm5.8-.9h.8V46h4.2v.8h-5v-8.9z"/><path class="st0" d="M259.6 52.1h1.4l3.8 8.9H263l-.8-2h-3.9l-.8 2h-1.8l3.9-8.9zm2 5.5l-1.4-3.6-1.4 3.6h2.8z"/><path class="st1" d="M265.9 52.1h2.8c4.6 0 4.8 3.8 4.8 4.5 0 .7-.2 4.5-4.8 4.5h-2.8v-9zm.8 8.2h1.7c2.4 0 4.2-1.1 4.2-3.7s-1.8-3.7-4.2-3.7h-1.7v7.4zm7.7-8.2h.9l2.9 7.8 2.9-7.8h.9l-3.4 8.9h-.8l-3.4-8.9zm11 0h.9L290 61h-.9l-1-2.4h-4.7l-1 2.4h-.9l3.9-8.9zm.4.9l-2.1 4.9h4.1l-2-4.9zm5.8-.9h1.1l5.4 7.8v-7.8h.8V61h-1.1l-5.4-7.8V61h-.8v-8.9zm17.5 7.5c-.8 1.2-2 1.6-3.3 1.6-2.7 0-4.6-2-4.6-4.7s1.9-4.7 4.6-4.7c1.2 0 2.3.4 3.1 1.4l-.7.6c-.6-.8-1.5-1.2-2.4-1.2-2.3 0-3.8 1.7-3.8 3.9s1.4 3.9 3.8 3.9c.9 0 2-.4 2.6-1.4l.7.6zm1.8-7.5h5.4v.8h-4.6v3.2h4.3v.8h-4.3v3.5h4.8v.6h-5.6v-8.9zm8 7.3c.4.7 1.2 1.1 2 1.1 1.1 0 2-.7 2-1.7 0-2.5-4.6-1-4.6-4.4 0-1.6 1.4-2.4 2.9-2.4 1 0 1.8.3 2.4 1.1l-.7.5c-.4-.6-1-.9-1.7-.9-1.1 0-2 .6-2 1.7 0 2.7 4.6 1.1 4.6 4.4 0 1.6-1.3 2.5-2.8 2.5-1.2 0-2.2-.4-2.9-1.3l.8-.6z"/><path fill="none" stroke="#231f20" stroke-width=".75" stroke-miterlimit="10" d="M246.6 6.7v71.5"/><path class="st3" d="M237.3 39.7c0 14.9-12.1 27.1-27.1 27.1-14.9 0-27.1-12.1-27.1-27.1 0-14.9 12.1-27.1 27.1-27.1 14.9.1 27.1 12.2 27.1 27.1z"/><ellipse transform="rotate(-88.977 38.494 39.725) scale(.99996)" class="st3" cx="38.5" cy="39.7" rx="27.1" ry="27.1"/><path class="st3" d="M122.6 39.7c0 14.9-12.1 27.1-27.1 27.1-14.9 0-27.1-12.1-27.1-27.1 0-14.9 12.1-27.1 27.1-27.1 15 .1 27.1 12.2 27.1 27.1zm57.5 0c0 14.9-12.1 27.1-27.1 27.1-14.9 0-27.1-12.1-27.1-27.1 0-14.9 12.1-27.1 27.1-27.1 15 .1 27.1 12.2 27.1 27.1z"/><path d="M38.4 44.6L45.7 30h3.4L38.4 50.7 27.6 30H31l7.4 14.6M93.7 30h3.1v19.6h-3.1zm59 14.5l7.4-14.5h3.4l-10.8 20.7L141.9 30h3.4l7.4 14.5m51.5-.2l-2.8 4.9H198l11.9-20.5 11.9 20.5h-3.3l-2.8-4.9h-11.5m5.7-10.1l-4.4 7.9h8.8l-4.4-7.9z" fill="#fff"/></svg>