<svg id="Layer_1" xmlns="http://www.w3.org/2000/svg" viewBox="0 0 378.2 72.8"><style>.st4{fill:#58595b}</style><path class="st4" d="M341.7 68.8c-17.9 0-32.4-14.5-32.4-32.4S323.8 4 341.7 4s32.4 14.5 32.4 32.4c.1 17.9-14.5 32.4-32.4 32.4m0-68.5c-19.9 0-36.1 16.1-36.1 36.1s16.1 36.1 36.1 36.1c19.9 0 36.1-16.1 36.1-36.1S361.7.3 341.7.3"/><path d="M301.5 36.1c0 19.9-16.1 36.1-36.1 36.1-19.9 0-36.1-16.1-36.1-36.1S245.6 0 265.5 0c19.9 0 36 16.2 36 36.1m-228.8 0c0 19.9-16.1 36.1-36.1 36.1-19.9 0-36-16.2-36-36.1S16.7 0 36.6 0s36.1 16.2 36.1 36.1m76.1 0c0 19.9-16.2 36.1-36.1 36.1-19.9 0-36.1-16.1-36.1-36.1S92.8 0 112.7 0c19.9 0 36.1 16.2 36.1 36.1m76.5 0c0 19.9-16.1 36.1-36.1 36.1s-36-16.2-36-36.1S169.4 0 189.3 0s36 16.2 36 36.1" fill="#ee3124"/><path d="M36.4 42.5l9.9-19.3h4.5L36.4 50.7 22.1 23.2h4.5zm73.8-19.4h4.1v26.2h-4.1zm78.7 19.4l9.8-19.4h4.5l-14.3 27.6-14.4-27.6h4.5zm76.2-13.8l-5.9 10.6H271l-5.9-10.6zm-7.6 13.5l-3.8 6.6h-4.4l15.8-27.3 15.8 27.3h-4.4l-3.8-6.6h-15.2z" fill="#fff"/><path class="st4" d="M323.5 24l2-3.5h7.4v33.9h-3.8V24z"/><text transform="translate(334.882 54.93)" font-size="50" font-family="Avenir-Book" fill="#59595b">8</text></svg>